<?xml version="1.0" encoding="UTF-8" standalone="no"?>
<!-- Created with Inkscape (http://www.inkscape.org/) -->

<svg
   width="78.238998mm"
   height="84.857002mm"
   viewBox="0 0 59.999998 65.075218"
   version="1.1"
   id="svg1"
   xml:space="preserve"
   inkscape:version="1.4 (86a8ad7, 2024-10-11)"
   sodipodi:docname="logo_svg.svg"
   xmlns:inkscape="http://www.inkscape.org/namespaces/inkscape"
   xmlns:sodipodi="http://sodipodi.sourceforge.net/DTD/sodipodi-0.dtd"
   xmlns="http://www.w3.org/2000/svg"
   xmlns:svg="http://www.w3.org/2000/svg"><sodipodi:namedview
     id="namedview1"
     pagecolor="#ffffff"
     bordercolor="#000000"
     borderopacity="0.25"
     inkscape:showpageshadow="2"
     inkscape:pageopacity="0.0"
     inkscape:pagecheckerboard="0"
     inkscape:deskcolor="#d1d1d1"
     inkscape:document-units="mm"
     inkscape:antialias-rendering="true"
     inkscape:zoom="1.28"
     inkscape:cx="116.40625"
     inkscape:cy="191.01563"
     inkscape:window-width="1920"
     inkscape:window-height="1009"
     inkscape:window-x="-8"
     inkscape:window-y="-8"
     inkscape:window-maximized="1"
     inkscape:current-layer="layer1-0" /><defs
     id="defs1" /><g
     inkscape:label="Layer 1"
     inkscape:groupmode="layer"
     id="layer1"><g
       id="layer1-0"
       inkscape:label="Layer 1"
       transform="matrix(0.90907454,0,0,0.90907454,22.373009,77.135421)"><g
         id="g23"><path
           id="path727"
           style="fill:#ffffff;fill-opacity:1;stroke:none;stroke-width:0.0919999;stroke-linecap:butt;stroke-linejoin:miter;stroke-dasharray:none;stroke-opacity:1"
           d="m 16.075809,-84.850491 c -0.17094,9.9e-4 -0.34117,0.004 -0.51327,0.0106 6.8638,2.01474 12.49746,11.86868 10.3588,18.75983 -0.29683,0.95649 -2.56525,3.29431 -2.05318,4.49129 0.50972,0.93827 1.10112,2.28516 2.20859,2.28392 5.41974,-0.007 7.67269,-7.07659 4.7538,-12.99708 2.76679,4.60318 3.16118,11.22189 -4.184,14.16491 -2.25516,0.90358 -0.96406,3.95302 -0.0908,4.30883 4.89303,1.99343 7.90161,-2.41396 9.45699,-4.25585 -2.58794,3.16356 -2.62568,5.54997 -8.97905,5.19767 -2.11404,-0.11739 -2.81076,2.55571 -1.86831,3.78375 1.77043,2.30683 4.70515,3.58785 8.50933,1.37976 -1.74007,1.77965 -5.74158,2.35084 -8.60352,-0.48858 -0.78336,-0.7772 -2.2421,-0.6669 -3.09388,-0.0848 -2.49134,1.70273 -6.40918,0.39109 -7.57219,-1.61876 -0.97281,-1.68124 -0.78088,-5.03251 1.33033,-5.904 2.0813,-0.85915 4.30298,0.5082 4.33706,2.24622 0.0415,2.11404 -2.51471,2.44236 -3.21041,0.90653 0.0177,1.01607 1.00221,2.45332 3.44114,2.24504 1.9137,-0.16349 3.25832,-2.9328 3.65896,-4.94335 0.59565,-5.91986 -5.94678,-8.65477 -10.33055,-8.23502 -5.1579398,0.49387 -9.7757798,6.64808 -10.0950898,11.81978 -0.42337,6.8566 5.26033,13.98869 11.8244898,15.79547 5.90156,1.62436 13.08202,-0.15356 17.79681,-3.99214 17.62729,-14.3507 4.62056,-44.99628 -17.08221,-44.87286 z m -7.7228798,0.0284 c -2.07979,0.0213 -4.38079,0.3401 -6.91647,1.03129 7.3803,-0.39188 21.3544798,6.60186 18.7597998,18.64209 1.13045,0.5409 1.35908,0.76765 2.23447,1.67528 5.12618,-1.75756 2.85755,-21.51176 -14.0777998,-21.34866 z m -5.99469,2.71363 c -1.99437995,-0.0514 -3.93784,0.26208 -5.67912,0.99714 -4.53521,1.91403 -8.2658702,5.01542 -10.9604202,7.42505 8.4422602,-5.45648 28.85194,-5.0468 30.9846,7.56042 0.76964,0.0443 1.51471,0.1986 2.20622,0.59455 1.69549,-9.28325 -7.90889,-16.35427 -16.5512798,-16.57716 z m -4.98219,6.6963 c -4.81735,0.083 -9.5135602,1.3692 -12.4461102,3.9686 -7.49938,6.64743 -8.30906,11.87248 -8.62941,12.47788 2.28151,-3.82631 19.1377702,-17.50986 35.782,-7.17311 1.04934,-0.15782 1.87796,-0.31882 2.77363,-0.16846 -1.08714,-6.04022 -9.4512098,-9.24346 -17.4801098,-9.10501 z m 29.5565498,0.70166 a 0.46051636,0.47392872 0 0 1 0.45915,0.47326 0.46051636,0.47392872 0 0 1 -0.45915,0.47444 0.46051636,0.47392872 0 0 1 -0.46149,-0.47444 0.46051636,0.47392872 0 0 1 0.46149,-0.47326 z m 3.2646,1.86835 a 0.3793882,0.39043774 0 0 1 0.37907,0.38967 0.3793882,0.39043774 0 0 1 -0.37907,0.39085 0.3793882,0.39043774 0 0 1 -0.37911,-0.39085 0.3793882,0.39043774 0 0 1 0.37911,-0.38967 z m 2.4746,2.29448 a 0.277978,0.28607403 0 0 1 0.27768,0.28619 0.277978,0.28607403 0 0 1 -0.27768,0.2862 0.277978,0.28607403 0 0 1 -0.27768,-0.2862 0.277978,0.28607403 0 0 1 0.27768,-0.28619 z m -31.97113975,2.68536 c -6.88593005,0.0433 -15.75004025,2.62884 -20.47157025,7.00828 -6.65503,6.17293 -4.41846,15.26748 -4.68319,15.88963 1.29028,-3.8327 9.82372,-20.68141 30.6373102,-18.00165 0.63384,-0.64548 1.47487,-1.60279 3.45294,-2.06609 -1.38483,-1.96697 -4.80394,-2.85616 -8.93548995,-2.83017 z m 33.14722975,0.0908 a 0.51734454,0.53241197 0 0 1 0.51802,0.53214 0.51734454,0.53241197 0 0 1 -0.51802,0.5321 0.51734454,0.53241197 0 0 1 -0.51798,-0.5321 0.51734454,0.53241197 0 0 1 0.51798,-0.53214 z m -0.70988,2.8796 a 0.3793882,0.39043774 0 0 1 0.37907,0.39085 0.3793882,0.39043774 0 0 1 -0.37907,0.38968 0.3793882,0.39043774 0 0 1 -0.37907,-0.38968 0.3793882,0.39043774 0 0 1 0.37907,-0.39085 z m 3.26573,2.92082 a 0.35508827,0.38029672 0 0 1 0.35557,0.38024 0.35508827,0.38029672 0 0 1 -0.35557,0.38028 0.35508827,0.38029672 0 0 1 -0.35552,-0.38028 0.35508827,0.38029672 0 0 1 0.35552,-0.38024 z m -34.4716698,0.6981 c -10.86942,-0.20108 -23.4997602,9.68237 -24.8215802,17.22938 -0.91543,5.22682 2.33559,11.77081 2.62416,12.61446 1.65709,-13.12138 11.0394702,-21.98176 20.28556025,-24.29536 -4.03849005,-2.58475 -10.32264025,1.70103 -14.81478025,4.38771 3.24335,-3.45965 10.3167102,-8.11174 17.2352302,-8.05255 0.0284,-0.54079 0.89068,-1.31398 1.63875,-1.70469 -0.70509,-0.10674 -1.4227,-0.16561 -2.14734,-0.17909 z m 12.5862298,0.73464 c 2.22827,-0.0376 4.74405,1.13243 7.27082,4.08513 -13.5152798,-12.01686 -21.97970975,15.49717 -0.96891,17.7014 -19.7951998,-0.97512 -15.4825698,-21.63166 -6.30191,-21.78657 z m 0.93004,2.34984 c -11.0899698,3.89781 -4.42023,17.85387 6.75163,17.12459 -15.9909498,1.71557 -16.6335498,-16.72863 -6.75163,-17.12459 z m 20.65403,1.70231 a 0.5368173,0.57492705 0 0 1 0.53685,0.57451 0.5368173,0.57492705 0 0 1 -0.53685,0.57569 0.5368173,0.57492705 0 0 1 -0.53682,-0.57569 0.5368173,0.57492705 0 0 1 0.53682,-0.57451 z m -1.33383,1.32681 a 0.44977638,0.48170689 0 0 1 0.44972,0.48149 0.44977638,0.48170689 0 0 1 -0.44972,0.4815 0.44977638,0.48170689 0 0 1 -0.44972,-0.4815 0.44977638,0.48170689 0 0 1 0.44972,-0.48149 z m -34.89433975,3.45763 c -1.14896005,0.4799 -1.98413005,0.8001 -2.98436005,1.9896 -9.7135402,11.55128 -3.4733,27.34455 11.63026,34.27034 -19.5547902,-15.91519 -14.57997,-29.26046 -8.64589995,-36.25994 z m -3.13036005,0.0248 c -8.3224402,1.93062 -16.8435002,15.82274 -15.2668502,20.51278 2.9727,8.84272 20.4313902,17.23123 21.1379002,17.46951 -20.4470902,-14.92031 -13.1445702,-30.63567 -5.87105,-37.98231 z m 3.58714005,2.38162 c -0.98639,0.29258 -4.78387005,6.67584 -3.32932005,14.83833 0.17838,1.00005 1.83161,2.6821 3.20218005,3.47295 -1.26223005,-5.24104 -2.49166005,-10.10244 0.12732,-18.31128 z m 0.83116995,4.17694 c -0.96007995,2.0301 -0.99366995,7.48006 -0.62983995,10.11631 0.94010995,6.81238 13.15403975,19.63763 20.29615975,21.73596 -3.39489,-2.80076 -19.1064898,-12.8971 -19.6663198,-31.85227 z m 2.74424,2.93259 a 0.76447082,0.83879426 0 0 0 -0.76408,0.83823 0.76447082,0.83879426 0 0 0 0.76408,0.83939 0.76447082,0.83879426 0 0 0 0.7652,-0.83939 0.76447082,0.83879426 0 0 0 -0.7652,-0.83823 z m 1.32323,2.55823 a 1.058498,1.1614074 0 0 0 -1.05835,1.16197 1.058498,1.1614074 0 0 0 1.05835,1.16077 1.058498,1.1614074 0 0 0 1.05838,-1.16077 1.058498,1.1614074 0 0 0 -1.05838,-1.16197 z m 3.49061,1.58931 c -0.66272,0.0177 -1.16879,0.5065 -0.98774,1.59283 1.25404,7.52379 15.4491198,13.77197 24.5637798,14.82894 -6.42624,-1.09786 -21.34816,-8.57607 -21.31334,-13.85769 0.0106,-1.60541 -1.2941098,-2.58901 -2.2626998,-2.56408 z m 7.0059398,3.39408 a 0.98499125,1.0446133 0 0 0 -0.9842,1.04424 0.98499125,1.0446133 0 0 0 0.9842,1.0454 0.98499125,1.0446133 0 0 0 0.98536,-1.0454 0.98499125,1.0446133 0 0 0 -0.98536,-1.04424 z"
           inkscape:export-filename="logo_5.png"
           inkscape:export-xdpi="300"
           inkscape:export-ydpi="300" /></g></g></g></svg>
